<?xml version="1.0" encoding="utf-8"?>
<svg viewBox="123.748 155.493 211.569 88.859" width="211.569" height="88.859" xmlns="http://www.w3.org/2000/svg">
  <path d="M 166.167 195.338 L 170.207 176.638 C 169.027 176.671 168.124 177.118 167.497 177.978 C 166.877 178.838 166.567 180.321 166.567 182.428 C 166.567 183.121 166.63 183.601 166.757 183.868 C 166.89 184.141 166.957 184.298 166.957 184.338 C 165.95 184.338 165.197 184.128 164.697 183.708 C 164.204 183.288 163.957 182.591 163.957 181.618 C 163.957 180.291 164.284 179.081 164.937 177.988 C 165.59 176.901 166.63 176.021 168.057 175.348 C 169.49 174.675 171.307 174.338 173.507 174.338 C 173.954 174.338 174.55 174.385 175.297 174.478 C 176.644 174.611 177.597 174.678 178.157 174.678 C 179.144 174.678 179.984 174.565 180.677 174.338 C 180.617 174.505 180.514 174.875 180.367 175.448 C 180.22 176.015 179.954 176.498 179.567 176.898 C 179.187 177.298 178.67 177.565 178.017 177.698 C 176.917 177.698 175.61 177.521 174.097 177.168 L 172.917 182.738 L 177.007 182.738 L 176.557 184.808 L 172.467 184.808 L 170.207 195.338 L 166.167 195.338 ZM 179.328 195.508 C 178.435 195.508 177.712 195.228 177.158 194.668 C 176.612 194.108 176.338 193.268 176.338 192.148 C 176.338 191.681 176.412 191.075 176.558 190.328 L 178.458 181.338 L 182.498 181.338 L 180.478 190.858 C 180.425 191.138 180.398 191.398 180.398 191.638 C 180.398 192.405 180.678 192.788 181.238 192.788 C 181.758 192.788 182.205 192.568 182.578 192.128 C 182.952 191.695 183.252 191.095 183.478 190.328 L 185.378 181.338 L 189.408 181.338 L 187.398 190.858 C 187.318 191.138 187.278 191.438 187.278 191.758 C 187.278 192.131 187.368 192.395 187.548 192.548 C 187.728 192.708 188.022 192.788 188.428 192.788 C 188.955 192.788 189.408 192.565 189.788 192.118 C 190.168 191.671 190.472 191.075 190.698 190.328 L 191.878 190.328 C 191.185 192.341 190.328 193.708 189.308 194.428 C 188.295 195.148 187.275 195.508 186.248 195.508 C 185.442 195.508 184.802 195.285 184.328 194.838 C 183.855 194.385 183.572 193.721 183.478 192.848 C 182.838 193.875 182.168 194.575 181.468 194.948 C 180.768 195.321 180.055 195.508 179.328 195.508 ZM 189.638 195.338 L 192.598 181.338 L 196.638 181.338 L 196.268 183.078 C 196.901 182.518 197.474 182.088 197.988 181.788 C 198.501 181.488 199.058 181.338 199.658 181.338 C 200.258 181.338 200.728 181.545 201.068 181.958 C 201.414 182.365 201.588 182.858 201.588 183.438 C 201.588 183.978 201.411 184.455 201.058 184.868 C 200.704 185.275 200.211 185.478 199.578 185.478 C 199.164 185.478 198.888 185.381 198.748 185.188 C 198.608 184.995 198.501 184.711 198.428 184.338 C 198.368 184.091 198.311 183.911 198.258 183.798 C 198.204 183.691 198.101 183.638 197.948 183.638 C 197.554 183.638 197.224 183.715 196.958 183.868 C 196.684 184.028 196.334 184.305 195.908 184.698 L 193.668 195.338 L 189.638 195.338 ZM 211.335 195.508 C 210.195 195.508 209.359 195.205 208.825 194.598 C 208.292 193.991 208.025 193.238 208.025 192.338 C 208.025 191.951 208.072 191.508 208.165 191.008 C 208.259 190.515 208.359 190.035 208.465 189.568 C 208.565 189.101 208.635 188.805 208.675 188.678 C 208.822 188.025 208.962 187.378 209.095 186.738 C 209.222 186.105 209.285 185.591 209.285 185.198 C 209.285 184.251 208.952 183.778 208.285 183.778 C 207.799 183.778 207.369 184.015 206.995 184.488 C 206.622 184.961 206.322 185.581 206.095 186.348 L 204.195 195.338 L 200.165 195.338 L 203.125 181.338 L 207.165 181.338 L 206.855 182.798 C 207.789 181.751 208.879 181.228 210.125 181.228 C 211.079 181.228 211.835 181.488 212.395 182.008 C 212.955 182.535 213.235 183.328 213.235 184.388 C 213.235 184.928 213.172 185.531 213.045 186.198 C 212.912 186.858 212.725 187.665 212.485 188.618 C 212.332 189.198 212.195 189.761 212.075 190.308 C 211.955 190.861 211.895 191.298 211.895 191.618 C 211.895 191.991 211.979 192.278 212.145 192.478 C 212.312 192.685 212.602 192.788 213.015 192.788 C 213.575 192.788 214.022 192.588 214.355 192.188 C 214.695 191.788 215.032 191.168 215.365 190.328 L 216.545 190.328 C 215.852 192.381 215.052 193.758 214.145 194.458 C 213.239 195.158 212.302 195.508 211.335 195.508 ZM 220.045 179.828 C 219.425 179.828 218.901 179.611 218.475 179.178 C 218.041 178.751 217.825 178.231 217.825 177.618 C 217.825 176.998 218.041 176.468 218.475 176.028 C 218.901 175.595 219.425 175.378 220.045 175.378 C 220.658 175.378 221.185 175.595 221.625 176.028 C 222.065 176.468 222.285 176.998 222.285 177.618 C 222.285 178.231 222.065 178.751 221.625 179.178 C 221.185 179.611 220.658 179.828 220.045 179.828 Z M 218.135 195.508 C 217.241 195.508 216.518 195.228 215.965 194.668 C 215.418 194.108 215.145 193.268 215.145 192.148 C 215.145 191.681 215.218 191.075 215.365 190.328 L 217.265 181.338 L 221.305 181.338 L 219.285 190.858 C 219.211 191.138 219.175 191.438 219.175 191.758 C 219.175 192.131 219.261 192.395 219.435 192.548 C 219.615 192.708 219.911 192.788 220.325 192.788 C 220.865 192.788 221.368 192.561 221.835 192.108 C 222.301 191.648 222.638 191.055 222.845 190.328 L 224.015 190.328 C 223.328 192.341 222.441 193.708 221.355 194.428 C 220.275 195.148 219.201 195.508 218.135 195.508 ZM 225.61 195.508 C 224.717 195.508 223.993 195.228 223.44 194.668 C 222.893 194.108 222.62 193.268 222.62 192.148 C 222.62 191.681 222.693 191.075 222.84 190.328 L 224.52 182.458 L 223.6 182.458 L 223.82 181.338 L 224.74 181.338 L 225.58 177.478 L 229.73 176.918 L 228.78 181.338 L 230.46 181.338 L 230.23 182.458 L 228.55 182.458 L 226.76 190.858 C 226.687 191.138 226.65 191.438 226.65 191.758 C 226.65 192.131 226.737 192.395 226.91 192.548 C 227.09 192.708 227.387 192.788 227.8 192.788 C 228.34 192.788 228.843 192.561 229.31 192.108 C 229.777 191.648 230.113 191.055 230.32 190.328 L 231.49 190.328 C 230.803 192.341 229.917 193.708 228.83 194.428 C 227.75 195.148 226.677 195.508 225.61 195.508 ZM 233.086 195.508 C 232.192 195.508 231.469 195.228 230.916 194.668 C 230.369 194.108 230.096 193.268 230.096 192.148 C 230.096 191.681 230.169 191.075 230.316 190.328 L 232.216 181.338 L 236.256 181.338 L 234.236 190.858 C 234.182 191.138 234.156 191.398 234.156 191.638 C 234.156 192.405 234.436 192.788 234.996 192.788 C 235.516 192.788 235.962 192.568 236.336 192.128 C 236.709 191.695 237.009 191.095 237.236 190.328 L 239.136 181.338 L 243.166 181.338 L 241.156 190.858 C 241.076 191.138 241.036 191.438 241.036 191.758 C 241.036 192.131 241.126 192.395 241.306 192.548 C 241.486 192.708 241.779 192.788 242.186 192.788 C 242.712 192.788 243.166 192.565 243.546 192.118 C 243.926 191.671 244.229 191.075 244.456 190.328 L 245.636 190.328 C 244.942 192.341 244.086 193.708 243.066 194.428 C 242.052 195.148 241.032 195.508 240.006 195.508 C 239.199 195.508 238.559 195.285 238.086 194.838 C 237.612 194.385 237.329 193.721 237.236 192.848 C 236.596 193.875 235.926 194.575 235.226 194.948 C 234.526 195.321 233.812 195.508 233.086 195.508 ZM 243.395 195.338 L 246.355 181.338 L 250.395 181.338 L 250.025 183.078 C 250.658 182.518 251.232 182.088 251.745 181.788 C 252.258 181.488 252.815 181.338 253.415 181.338 C 254.015 181.338 254.485 181.545 254.825 181.958 C 255.172 182.365 255.345 182.858 255.345 183.438 C 255.345 183.978 255.168 184.455 254.815 184.868 C 254.462 185.275 253.968 185.478 253.335 185.478 C 252.922 185.478 252.645 185.381 252.505 185.188 C 252.365 184.995 252.258 184.711 252.185 184.338 C 252.125 184.091 252.068 183.911 252.015 183.798 C 251.962 183.691 251.858 183.638 251.705 183.638 C 251.312 183.638 250.982 183.715 250.715 183.868 C 250.442 184.028 250.092 184.305 249.665 184.698 L 247.425 195.338 L 243.395 195.338 ZM 258.983 195.508 C 257.603 195.508 256.529 195.148 255.763 194.428 C 255.003 193.708 254.623 192.585 254.623 191.058 C 254.623 189.765 254.873 188.345 255.373 186.798 C 255.879 185.251 256.703 183.911 257.843 182.778 C 258.976 181.651 260.423 181.088 262.183 181.088 C 264.236 181.088 265.263 181.985 265.263 183.778 C 265.263 184.818 264.963 185.778 264.363 186.658 C 263.763 187.538 262.969 188.241 261.983 188.768 C 260.996 189.301 259.943 189.605 258.823 189.678 C 258.783 190.238 258.763 190.611 258.763 190.798 C 258.763 191.718 258.923 192.341 259.243 192.668 C 259.556 192.995 260.069 193.158 260.783 193.158 C 261.789 193.158 262.653 192.925 263.373 192.458 C 264.086 191.991 264.873 191.281 265.733 190.328 L 266.683 190.328 C 264.616 193.781 262.049 195.508 258.983 195.508 Z M 259.043 188.338 C 259.736 188.298 260.393 188.055 261.013 187.608 C 261.639 187.161 262.146 186.591 262.533 185.898 C 262.913 185.211 263.103 184.485 263.103 183.718 C 263.103 182.951 262.869 182.568 262.403 182.568 C 261.729 182.568 261.073 183.158 260.433 184.338 C 259.786 185.511 259.323 186.845 259.043 188.338 Z" transform="matrix(2.0815370082855225, 0, 0, 1.764868974685669, -217.00653076171875, -112.59233093261719)" style="fill: rgb(171, 122, 95); white-space: pre;"/>
  <path d="M 153.54 193.843 C 150.055 193.843 148.313 192.725 148.313 190.489 C 148.313 189.752 148.457 188.909 148.744 187.959 C 149.031 187.009 149.443 185.783 149.98 184.283 C 150.604 182.718 151.073 181.386 151.385 180.286 C 151.698 179.186 151.854 178.204 151.854 177.337 C 151.854 175.073 150.518 173.941 147.845 173.941 C 147.12 173.941 146.384 174.007 145.635 174.137 L 140.258 192.99 L 130.611 192.99 L 139.734 161.195 L 149.643 160.189 L 146.365 171.747 L 146.908 171.747 C 148.645 171.747 150.248 171.295 151.723 170.391 C 153.197 169.487 154.345 168.361 155.169 167.009 C 156.007 165.667 156.424 164.344 156.424 163.04 C 156.424 161.503 155.806 160.245 154.57 159.266 C 153.347 158.278 151.503 157.785 149.044 157.785 C 145.423 157.785 142.25 158.27 139.528 159.238 C 136.806 160.207 134.695 161.61 133.196 163.445 C 131.698 165.272 130.948 167.438 130.948 169.944 C 130.948 171.174 131.104 172.031 131.417 172.516 C 131.729 173.001 131.885 173.274 131.885 173.34 C 129.474 173.34 127.676 172.967 126.49 172.222 C 125.304 171.467 124.71 170.224 124.71 168.491 C 124.71 166.356 125.885 164.284 128.232 162.271 C 130.579 160.249 133.584 158.614 137.242 157.366 C 140.914 156.118 144.58 155.493 148.238 155.493 C 151.597 155.493 154.414 155.861 156.687 156.597 C 158.959 157.324 160.658 158.298 161.782 159.518 C 162.893 160.73 163.449 162.052 163.449 163.487 C 163.449 165.052 162.806 166.622 161.52 168.197 C 160.221 169.762 158.453 171.044 156.218 172.04 C 157.917 172.404 159.109 173.014 159.796 173.871 C 160.495 174.72 160.845 175.776 160.845 177.044 C 160.845 178.004 160.69 179.028 160.377 180.118 C 160.064 181.199 159.614 182.54 159.028 184.143 C 158.678 185.178 158.348 186.194 158.035 187.19 C 157.711 188.187 157.548 189.021 157.548 189.692 C 157.548 190.456 157.786 191.141 158.26 191.746 C 158.734 192.343 159.371 192.757 160.171 192.99 C 157.449 193.559 155.239 193.843 153.54 193.843 M 175.308 193.186 C 172.012 193.186 169.402 192.553 167.478 191.285 C 165.554 190.018 164.594 188.019 164.594 185.29 C 164.594 183.025 165.217 180.51 166.467 177.743 C 167.716 174.975 169.726 172.581 172.499 170.559 C 175.271 168.546 178.755 167.54 182.951 167.54 C 188.67 167.54 191.531 170.205 191.531 175.534 L 191.531 175.59 C 191.667 175.628 191.911 175.646 192.261 175.646 C 193.747 175.646 195.446 175.353 197.356 174.766 C 199.28 174.179 201.022 173.47 202.583 172.641 L 203.201 173.997 C 201.903 175.021 200.209 175.894 198.124 176.61 C 196.051 177.327 193.784 177.836 191.325 178.134 C 190.974 181.171 190.064 183.822 188.59 186.086 C 187.115 188.36 185.218 190.111 182.895 191.341 C 180.572 192.571 178.043 193.186 175.308 193.186 M 177.987 188.686 C 179.061 188.686 180.136 188.229 181.209 187.316 C 182.282 186.403 183.219 185.154 184.019 183.57 C 184.83 181.987 185.411 180.226 185.761 178.288 C 184.562 178.092 183.963 177.393 183.963 176.191 C 183.963 174.822 184.656 173.923 186.042 173.494 C 185.954 172.394 185.729 171.635 185.368 171.216 C 185.006 170.797 184.38 170.587 183.494 170.587 C 182.02 170.587 180.591 171.388 179.205 172.991 C 177.819 174.594 176.7 176.508 175.852 178.735 C 175.003 180.971 174.578 182.942 174.578 184.647 C 174.578 186.24 174.821 187.312 175.308 187.861 C 175.809 188.41 176.7 188.686 177.987 188.686 M 206.34 205.485 C 204.192 205.485 202.407 205.07 200.983 204.241 C 199.546 203.412 198.829 202.21 198.829 200.635 C 198.829 198.734 199.859 197.211 201.92 196.065 C 203.98 194.919 206.595 193.959 209.768 193.186 L 210.555 190.489 C 209.268 191.56 207.951 192.296 206.603 192.697 C 205.265 193.088 203.905 193.284 202.519 193.284 C 200.37 193.284 198.641 192.785 197.33 191.788 C 196.006 190.792 195.345 189.291 195.345 187.288 C 195.345 186.459 195.524 185.378 195.888 184.046 L 200.44 167.987 L 210.087 167.987 L 205.273 184.996 C 205.134 185.397 205.067 185.811 205.067 186.24 C 205.067 187.703 205.733 188.434 207.071 188.434 C 208.232 188.434 209.263 188.061 210.162 187.316 C 211.061 186.561 211.778 185.569 212.316 184.339 L 216.999 167.987 L 226.646 167.987 L 220.015 191.187 C 222.162 190.656 223.88 189.855 225.166 188.783 C 226.465 187.721 227.564 186.142 228.463 184.046 L 231.273 184.046 C 230.061 187.009 228.431 189.179 226.384 190.558 C 224.323 191.946 222.001 192.892 219.416 193.396 L 218.404 196.987 C 217.516 200.22 215.974 202.448 213.777 203.668 C 211.591 204.879 209.113 205.485 206.34 205.485 M 204.804 201.585 C 205.565 201.585 206.303 201.204 207.015 200.439 C 207.727 199.675 208.281 198.576 208.682 197.141 L 209.094 195.688 C 204.711 196.889 202.519 198.305 202.519 199.936 C 202.519 200.374 202.718 200.761 203.118 201.096 C 203.531 201.422 204.093 201.585 204.804 201.585" style="fill: rgb(109, 59, 32); line-height: 57.2415px; paint-order: fill; white-space: pre;"/>
</svg>