<?xml version="1.0" encoding="utf-8"?>
<svg viewBox="143.719 161.922 201.266 83.437" width="201.266" height="83.437" xmlns="http://www.w3.org/2000/svg">
  <path d="M 152.789 192.272 C 152.789 198.192 153.112 202.915 153.759 206.442 C 152.779 206.809 151.736 206.992 150.629 206.992 C 149.522 206.992 148.566 206.639 147.759 205.932 C 146.946 205.225 146.539 204.252 146.539 203.012 C 146.539 201.772 146.692 199.419 146.999 195.952 C 147.306 192.485 147.459 189.802 147.459 187.902 C 147.459 183.209 147.136 178.685 146.489 174.332 C 148.756 174.519 151.806 174.612 155.639 174.612 C 159.472 174.612 163.139 174.335 166.639 173.782 C 167.006 174.455 167.189 175.259 167.189 176.192 C 167.189 177.132 166.829 177.962 166.109 178.682 C 165.389 179.402 164.499 179.762 163.439 179.762 C 162.379 179.762 160.692 179.609 158.379 179.302 C 156.066 178.995 154.356 178.842 153.249 178.842 C 153.002 182.182 152.849 185.249 152.789 188.042 C 154.569 188.222 156.539 188.312 158.699 188.312 C 160.866 188.312 162.746 187.992 164.339 187.352 C 164.706 188.025 164.889 188.829 164.889 189.762 C 164.889 190.702 164.529 191.545 163.809 192.292 C 163.089 193.045 162.239 193.422 161.259 193.422 C 160.272 193.422 158.859 193.232 157.019 192.852 C 155.179 192.465 153.769 192.272 152.789 192.272 ZM 172.877 202.302 L 173.337 192.732 C 173.337 189.759 172.907 186.939 172.047 184.272 C 172.907 183.899 173.964 183.712 175.217 183.712 C 177.671 183.712 178.897 185.079 178.897 187.812 C 178.897 189.345 178.731 191.499 178.397 194.272 C 178.057 197.045 177.887 199.062 177.887 200.322 C 177.887 201.855 178.577 202.622 179.957 202.622 C 180.784 202.622 181.757 201.925 182.877 200.532 C 183.997 199.132 184.964 197.569 185.777 195.842 C 186.591 194.109 187.074 192.689 187.227 191.582 C 187.041 188.209 186.781 185.772 186.447 184.272 C 187.427 183.899 188.431 183.712 189.457 183.712 C 190.484 183.712 191.344 184.035 192.037 184.682 C 192.724 185.329 193.067 186.125 193.067 187.072 C 193.067 188.025 192.931 189.605 192.657 191.812 C 192.377 194.019 192.237 196.325 192.237 198.732 C 192.237 201.139 192.514 203.709 193.067 206.442 C 191.874 206.809 190.801 206.992 189.847 206.992 C 187.947 206.992 186.997 205.735 186.997 203.222 C 186.997 202.115 187.121 200.582 187.367 198.622 C 186.141 201.229 184.644 203.322 182.877 204.902 C 181.117 206.482 179.331 207.272 177.517 207.272 C 174.424 207.272 172.877 205.615 172.877 202.302 ZM 206.618 206.442 C 205.671 206.809 204.661 206.992 203.588 206.992 C 202.515 206.992 201.648 206.739 200.988 206.232 C 200.328 205.725 199.998 205.019 199.998 204.112 C 199.998 203.212 200.135 201.565 200.408 199.172 C 200.688 196.779 200.828 194.455 200.828 192.202 C 200.828 189.949 200.475 187.305 199.768 184.272 C 200.748 183.899 201.715 183.712 202.668 183.712 C 203.615 183.712 204.435 184.035 205.128 184.682 C 205.815 185.329 206.158 186.189 206.158 187.262 C 206.158 187.809 206.068 188.629 205.888 189.722 C 205.701 190.809 205.595 191.629 205.568 192.182 C 206.761 189.449 208.178 187.309 209.818 185.762 C 211.458 184.215 213.091 183.442 214.718 183.442 C 215.851 183.442 216.755 183.839 217.428 184.632 C 218.108 185.432 218.448 186.439 218.448 187.652 C 218.448 188.859 218.141 189.839 217.528 190.592 C 216.915 191.345 216.155 191.722 215.248 191.722 C 214.341 191.722 213.611 191.629 213.058 191.442 C 213.151 191.075 213.198 190.739 213.198 190.432 C 213.198 189.172 212.755 188.542 211.868 188.542 C 210.515 188.542 209.248 189.899 208.068 192.612 C 206.888 195.332 206.098 197.872 205.698 200.232 C 205.851 202.532 206.158 204.602 206.618 206.442 ZM 244.419 188.412 L 243.959 198.532 C 243.959 201.319 244.389 204.045 245.249 206.712 C 244.389 207.085 243.405 207.272 242.299 207.272 C 239.692 207.272 238.389 205.815 238.389 202.902 C 238.389 201.582 238.559 199.365 238.899 196.252 C 239.232 193.139 239.399 191.182 239.399 190.382 C 239.399 188.849 238.709 188.082 237.329 188.082 C 236.322 188.082 235.182 188.812 233.909 190.272 C 232.635 191.725 231.545 193.349 230.639 195.142 C 229.732 196.942 229.202 198.422 229.049 199.582 C 229.175 201.975 229.482 204.262 229.969 206.442 C 228.989 206.809 227.972 206.992 226.919 206.992 C 225.859 206.992 224.999 206.739 224.339 206.232 C 223.679 205.725 223.349 205.019 223.349 204.112 C 223.349 203.212 223.485 201.589 223.759 199.242 C 224.039 196.895 224.179 194.565 224.179 192.252 C 224.179 189.932 223.825 187.272 223.119 184.272 C 224.099 183.899 225.142 183.712 226.249 183.712 C 227.349 183.712 228.245 184.035 228.939 184.682 C 229.625 185.329 229.969 186.125 229.969 187.072 C 229.969 188.025 229.849 189.545 229.609 191.632 C 230.769 189.452 232.285 187.542 234.159 185.902 C 236.032 184.262 237.902 183.442 239.769 183.442 C 242.869 183.442 244.419 185.099 244.419 188.412 ZM 252.223 184.132 C 253.203 183.852 254.189 183.712 255.183 183.712 C 256.183 183.712 257.036 184.019 257.743 184.632 C 258.443 185.245 258.793 186.035 258.793 187.002 C 258.793 187.969 258.633 189.642 258.313 192.022 C 257.993 194.395 257.833 196.242 257.833 197.562 C 257.833 200.995 258.153 203.955 258.793 206.442 C 257.846 206.809 256.819 206.992 255.713 206.992 C 254.613 206.992 253.739 206.739 253.093 206.232 C 252.446 205.725 252.123 204.989 252.123 204.022 C 252.123 203.055 252.309 201.469 252.683 199.262 C 253.049 197.055 253.233 195.232 253.233 193.792 C 253.233 189.959 252.896 186.739 252.223 184.132 Z M 252.813 173.732 C 253.886 173.245 254.946 173.002 255.993 173.002 C 257.033 173.002 257.806 173.269 258.313 173.802 C 258.819 174.342 259.073 175.132 259.073 176.172 C 259.073 177.212 258.726 178.132 258.033 178.932 C 257.346 179.732 256.449 180.132 255.343 180.132 C 253.076 180.132 251.943 178.949 251.943 176.582 C 251.943 175.542 252.233 174.592 252.813 173.732 ZM 267.662 176.952 C 268.642 176.465 269.639 176.222 270.652 176.222 C 271.659 176.222 272.479 176.542 273.112 177.182 C 273.739 177.829 274.052 178.779 274.052 180.032 C 274.052 181.292 273.975 182.719 273.822 184.312 C 276.122 184.312 278.315 183.992 280.402 183.352 C 280.769 183.965 280.952 184.679 280.952 185.492 C 280.952 186.299 280.592 186.955 279.872 187.462 C 279.152 187.969 278.422 188.222 277.682 188.222 C 276.949 188.222 276.122 188.132 275.202 187.952 C 274.282 187.765 273.685 187.655 273.412 187.622 C 273.379 187.902 273.292 188.455 273.152 189.282 C 273.019 190.109 272.905 190.829 272.812 191.442 C 272.565 193.129 272.442 194.939 272.442 196.872 C 272.442 201.072 273.805 203.172 276.532 203.172 C 277.545 203.172 278.712 202.819 280.032 202.112 C 280.432 202.699 280.632 203.452 280.632 204.372 C 280.632 205.292 280.132 206.005 279.132 206.512 C 278.139 207.019 276.952 207.272 275.572 207.272 C 270.172 207.272 267.472 204.205 267.472 198.072 C 267.472 197.179 267.602 195.569 267.862 193.242 C 268.122 190.909 268.252 189.022 268.252 187.582 C 266.785 187.675 265.605 187.935 264.712 188.362 C 264.345 187.809 264.162 187.172 264.162 186.452 C 264.162 185.732 264.422 185.135 264.942 184.662 C 265.462 184.182 266.105 183.942 266.872 183.942 C 267.639 183.942 268.145 183.959 268.392 183.992 C 268.425 183.745 268.442 183.422 268.442 183.022 C 268.442 180.722 268.182 178.699 267.662 176.952 ZM 286.641 202.302 L 287.101 192.732 C 287.101 189.759 286.671 186.939 285.811 184.272 C 286.671 183.899 287.728 183.712 288.981 183.712 C 291.434 183.712 292.661 185.079 292.661 187.812 C 292.661 189.345 292.494 191.499 292.161 194.272 C 291.821 197.045 291.651 199.062 291.651 200.322 C 291.651 201.855 292.341 202.622 293.721 202.622 C 294.548 202.622 295.521 201.925 296.641 200.532 C 297.761 199.132 298.728 197.569 299.541 195.842 C 300.354 194.109 300.838 192.689 300.991 191.582 C 300.804 188.209 300.544 185.772 300.211 184.272 C 301.191 183.899 302.194 183.712 303.221 183.712 C 304.248 183.712 305.108 184.035 305.801 184.682 C 306.488 185.329 306.831 186.125 306.831 187.072 C 306.831 188.025 306.694 189.605 306.421 191.812 C 306.141 194.019 306.001 196.325 306.001 198.732 C 306.001 201.139 306.278 203.709 306.831 206.442 C 305.638 206.809 304.564 206.992 303.611 206.992 C 301.711 206.992 300.761 205.735 300.761 203.222 C 300.761 202.115 300.884 200.582 301.131 198.622 C 299.904 201.229 298.408 203.322 296.641 204.902 C 294.881 206.482 293.094 207.272 291.281 207.272 C 288.188 207.272 286.641 205.615 286.641 202.302 ZM 320.381 206.442 C 319.435 206.809 318.425 206.992 317.351 206.992 C 316.278 206.992 315.411 206.739 314.751 206.232 C 314.091 205.725 313.761 205.019 313.761 204.112 C 313.761 203.212 313.898 201.565 314.171 199.172 C 314.451 196.779 314.591 194.455 314.591 192.202 C 314.591 189.949 314.238 187.305 313.531 184.272 C 314.511 183.899 315.478 183.712 316.431 183.712 C 317.378 183.712 318.198 184.035 318.891 184.682 C 319.578 185.329 319.921 186.189 319.921 187.262 C 319.921 187.809 319.831 188.629 319.651 189.722 C 319.465 190.809 319.358 191.629 319.331 192.182 C 320.525 189.449 321.941 187.309 323.581 185.762 C 325.221 184.215 326.855 183.442 328.481 183.442 C 329.615 183.442 330.518 183.839 331.191 184.632 C 331.871 185.432 332.211 186.439 332.211 187.652 C 332.211 188.859 331.905 189.839 331.291 190.592 C 330.678 191.345 329.918 191.722 329.011 191.722 C 328.105 191.722 327.375 191.629 326.821 191.442 C 326.915 191.075 326.961 190.739 326.961 190.432 C 326.961 189.172 326.518 188.542 325.631 188.542 C 324.278 188.542 323.011 189.899 321.831 192.612 C 320.651 195.332 319.861 197.872 319.461 200.232 C 319.615 202.532 319.921 204.602 320.381 206.442 ZM 340.882 196.552 C 340.882 198.759 341.235 200.499 341.942 201.772 C 342.649 203.045 343.829 203.682 345.482 203.682 C 347.142 203.682 348.439 203.122 349.372 202.002 C 350.305 200.882 350.772 199.525 350.772 197.932 C 351.819 197.932 352.725 198.192 353.492 198.712 C 354.259 199.232 354.642 199.952 354.642 200.872 C 354.642 202.772 353.629 204.359 351.602 205.632 C 349.575 206.905 347.445 207.542 345.212 207.542 C 341.712 207.542 339.182 206.599 337.622 204.712 C 336.055 202.825 335.272 200.029 335.272 196.322 C 335.272 192.609 336.322 189.489 338.422 186.962 C 340.522 184.429 343.322 183.162 346.822 183.162 C 349.209 183.162 351.132 183.705 352.592 184.792 C 354.045 185.885 354.772 187.575 354.772 189.862 C 354.772 192.142 353.739 193.859 351.672 195.012 C 349.599 196.159 347.075 196.732 344.102 196.732 C 343.062 196.732 341.989 196.672 340.882 196.552 Z M 340.932 192.912 C 341.852 193.099 342.819 193.192 343.832 193.192 C 346.039 193.192 347.892 192.779 349.392 191.952 C 349.579 191.212 349.672 190.629 349.672 190.202 C 349.672 189.129 349.289 188.315 348.522 187.762 C 347.755 187.209 346.705 186.932 345.372 186.932 C 344.039 186.932 342.835 187.362 341.762 188.222 C 341.209 189.815 340.932 191.379 340.932 192.912 Z" transform="matrix(0.9449130296707153, 0, 0, 1, 7.917065143585205, 0)" style="fill: rgb(171, 122, 95); white-space: pre;"/>
  <path d="M 325.685 175.593 C 328.152 175.593 330.002 175.876 331.235 176.443 C 332.462 177.016 333.075 177.923 333.075 179.163 C 333.075 180.403 332.698 181.346 331.945 181.993 C 331.192 182.633 330.328 182.953 329.355 182.953 C 328.382 182.953 327.508 182.706 326.735 182.213 C 325.962 181.72 325.425 181.063 325.125 180.243 C 324.438 180.243 323.782 180.47 323.155 180.923 C 322.528 181.383 322.132 181.976 321.965 182.703 C 325.658 183.603 328.308 184.65 329.915 185.843 C 331.522 187.036 332.325 188.566 332.325 190.433 C 332.325 192.3 331.478 193.793 329.785 194.913 C 328.098 196.033 325.822 196.593 322.955 196.593 C 320.088 196.593 318.058 196.2 316.865 195.413 C 315.672 194.633 315.075 193.6 315.075 192.313 C 315.075 191.02 315.475 189.833 316.275 188.753 C 316.668 189.593 317.422 190.35 318.535 191.023 C 319.642 191.696 320.738 192.033 321.825 192.033 C 323.818 192.033 325.088 191.396 325.635 190.123 C 322.535 189.716 320.172 188.853 318.545 187.533 C 316.925 186.22 316.115 184.63 316.115 182.763 C 316.115 181.51 316.448 180.393 317.115 179.413 C 317.788 178.433 318.648 177.683 319.695 177.163 C 321.748 176.116 323.745 175.593 325.685 175.593 ZM 348.755 179.093 C 351.009 179.093 352.135 180.223 352.135 182.483 C 352.135 183.45 351.862 185.093 351.315 187.413 C 350.762 189.726 350.485 191.47 350.485 192.643 C 350.485 193.823 350.682 194.683 351.075 195.223 C 350.089 196.136 349.042 196.593 347.935 196.593 C 345.789 196.593 344.715 195.436 344.715 193.123 C 344.715 192.263 344.995 190.806 345.555 188.753 C 346.115 186.7 346.395 185.366 346.395 184.753 C 346.395 183.913 346.079 183.493 345.445 183.493 C 344.925 183.493 344.329 183.72 343.655 184.173 C 342.982 184.633 342.332 185.25 341.705 186.023 C 341.085 186.796 340.559 187.776 340.125 188.963 C 339.699 190.15 339.485 191.353 339.485 192.573 C 339.485 193.8 339.682 194.683 340.075 195.223 C 339.082 196.136 338.035 196.593 336.935 196.593 C 334.789 196.593 333.715 195.436 333.715 193.123 C 333.715 191.743 334.089 188.943 334.835 184.723 C 335.469 181.01 335.832 178.926 335.925 178.473 L 334.355 176.233 C 336.689 174.873 338.529 174.193 339.875 174.193 C 340.642 174.193 341.182 174.346 341.495 174.653 C 341.815 174.96 341.975 175.47 341.975 176.183 C 341.975 177.523 341.845 178.986 341.585 180.573 C 341.325 182.16 341.082 183.326 340.855 184.073 L 341.135 184.213 C 343.135 180.8 345.675 179.093 348.755 179.093 ZM 366.856 181.223 C 367.902 181.223 368.806 181.643 369.566 182.483 C 370.319 183.323 370.696 184.54 370.696 186.133 C 370.696 187.733 370.416 189.21 369.856 190.563 C 369.296 191.916 368.559 193.02 367.646 193.873 C 366.732 194.733 365.696 195.403 364.536 195.883 C 363.376 196.356 362.189 196.593 360.976 196.593 C 358.536 196.593 356.606 195.92 355.186 194.573 C 353.766 193.233 353.056 191.453 353.056 189.233 C 353.056 186.226 354.022 183.783 355.956 181.903 C 357.889 180.03 360.349 179.093 363.336 179.093 C 364.002 179.093 364.672 179.166 365.346 179.313 C 365.552 179.933 365.666 180.633 365.686 181.413 C 366.079 181.286 366.469 181.223 366.856 181.223 Z M 363.416 185.113 C 363.416 184.593 363.542 184.006 363.796 183.353 C 364.049 182.7 364.456 182.176 365.016 181.783 C 362.549 182.303 360.849 183.3 359.916 184.773 C 359.116 186.046 358.716 187.353 358.716 188.693 C 358.716 190.04 358.989 191.12 359.536 191.933 C 360.089 192.746 360.796 193.153 361.656 193.153 C 363.556 193.153 364.899 191.91 365.686 189.423 C 364.172 188.49 363.416 187.053 363.416 185.113 ZM 374.862 201.463 C 373.702 201.463 372.895 201.18 372.442 200.613 C 371.982 200.04 371.752 199.216 371.752 198.143 C 371.752 197.07 371.982 194.91 372.442 191.663 C 372.895 188.416 373.339 185.646 373.772 183.353 L 372.202 181.113 C 373.355 180.44 374.352 179.93 375.192 179.583 C 376.032 179.236 376.865 179.063 377.692 179.063 C 379.032 179.063 379.702 179.95 379.702 181.723 C 379.702 181.97 379.665 182.466 379.592 183.213 L 379.872 183.353 C 380.412 182.006 381.195 180.956 382.222 180.203 C 383.249 179.443 384.459 179.063 385.852 179.063 C 387.239 179.063 388.345 179.693 389.172 180.953 C 389.992 182.213 390.402 183.776 390.402 185.643 C 390.402 188.143 389.525 190.42 387.772 192.473 C 386.912 193.486 385.762 194.303 384.322 194.923 C 382.889 195.55 381.285 195.863 379.512 195.863 C 378.965 195.863 378.255 195.816 377.382 195.723 C 377.322 196.376 377.292 196.983 377.292 197.543 C 377.292 198.736 377.582 199.586 378.162 200.093 C 377.115 201.006 376.015 201.463 374.862 201.463 Z M 378.532 189.873 L 377.882 193.123 C 380.142 193.063 381.949 192.32 383.302 190.893 C 384.655 189.466 385.332 187.903 385.332 186.203 C 385.332 185.33 385.159 184.626 384.812 184.093 C 384.465 183.56 383.965 183.293 383.312 183.293 C 380.999 183.293 379.405 185.486 378.532 189.873 Z" transform="matrix(1.2021019458770752, 0, 0, 1.0614999532699585, -180.57115173339844, 29.09465789794922)" style="fill: rgba(215, 129, 38, 0.81); white-space: pre;"/>
</svg>